<svg xmlns="http://www.w3.org/2000/svg" xmlns:xlink="http://www.w3.org/1999/xlink" width="1923.835" height="1077.226" viewBox="0 0 1923.835 1077.226">
  <defs>
    <linearGradient id="linear-gradient" y1="0.983" x2="0.784" y2="0.19" gradientUnits="objectBoundingBox">
      <stop offset="0" stop-color="#3fffec"/>
      <stop offset="1" stop-color="#00b0ff"/>
    </linearGradient>
  </defs>
  <path id="Path_1" data-name="Path 1" d="M0,0H992.262s107.723,69.792,224.549,100.137,242.755,21.241,242.755,21.241,141.86-16.689,257.927,0,206.342,66.758,206.342,66.758v889.091S1834.319,995.3,1735.7,995.3s-206.342,81.93-206.342,81.93-106.964-81.93-212.411-81.93-209.376,81.93-209.376,81.93-89.516-81.93-185.1-81.93-197.239,81.93-197.239,81.93S617.509,995.3,515.855,995.3s-197.239,81.93-197.239,81.93S240.479,995.3,160.825,995.3,0,1077.226,0,1077.226Z" fill="url(#linear-gradient)"/>
</svg>
